<?xml version="1.0" encoding="UTF-8"?>
<svg id="Layer_2" data-name="Layer 2" xmlns="http://www.w3.org/2000/svg" viewBox="0 0 61.25 82.68">
  <defs>
    <style>
      .cls-1, .cls-2 {
        stroke-width: 0px;
      }

      .cls-2 {
        fill: #fff;
      }

      .cls-3 {
        fill: none;
        stroke: #000;
        stroke-linecap: round;
        stroke-linejoin: round;
        stroke-width: 2px;
      }
    </style>
  </defs>
  <g id="Layer_1-2" data-name="Layer 1">
    <g>
      <path class="cls-2" d="m50.81,23.52v32.95c0,12.27-10,22.27-22.28,22.27h-5.44c-12.28,0-22.28-10-22.28-22.27V23.52C.81,11.24,10.81,1.26,23.09,1.26h5.44c12.28,0,22.28,9.99,22.28,22.27Z"/>
      <path class="cls-1" d="m28.62,0h-5.62C10.32,0,0,10.31,0,22.99v34.02c0,12.67,10.32,22.99,23,22.99h5.62c12.68,0,23-10.32,23-22.99V22.99C51.62,10.31,41.3,0,28.62,0Zm-2.49,10.45c.23,0,.46.02.68.05,2.55.33,4.53,2.52,4.53,5.16v7.08c0,2.64-1.98,4.83-4.53,5.16-.22.03-.45.05-.68.05h-.64c-.23,0-.46-.02-.68-.05-2.55-.33-4.53-2.52-4.53-5.16v-7.08c0-2.64,1.98-4.83,4.53-5.16.22-.03.45-.05.68-.05h.64ZM2,22.99C2,11.42,11.42,2,23,2h1.81v6.49c-3.66.34-6.53,3.42-6.53,7.17v7.08c0,3.75,2.87,6.83,6.53,7.17v9.09H2v-16.01Zm47.62,34.02c0,11.57-9.42,20.99-21,20.99h-5.62c-11.58,0-21-9.42-21-20.99v-16.01h47.62v16.01Zm0-18.01h-22.81v-9.09c3.66-.34,6.53-3.42,6.53-7.17v-7.08c0-3.75-2.87-6.83-6.53-7.17V2h1.81c11.58,0,21,9.42,21,20.99v16.01Z"/>
      <path class="cls-3" d="m60.24,65.08c.17,5.65-2.05,14.21-8.78,16.61"/>
      <path class="cls-3" d="m55.75,57.35c.47,8.77-3.23,20.89-14.01,23.21"/>
    </g>
  </g>
</svg>